<svg xmlns="http://www.w3.org/2000/svg" width="719.25" height="288">
<defs><marker id="arrow-filled" refX="6" refY="3" markerWidth="6" markerHeight="6" orient="auto"><path d="M0,0 6,3 0,6z" style="stroke: none; fill: black;"></path></marker><marker id="arrow-open" refX="6" refY="3" markerWidth="6" markerHeight="6" orient="auto"><path d="M0,0 6,3 0,6" style="stroke-width: 1; fill: none; stroke: black;"></path></marker></defs><rect width="62.5" height="38" style="stroke-width: 1; fill: none; stroke: black;" x="10" y="20"></rect><g><text fill="black" font-family="Helvetica,sans-Serif" x="41.25" y="39" style="text-anchor: middle; alignment-baseline: central;">:User</text></g><rect width="62.5" height="38" style="stroke-width: 1; fill: none; stroke: black;" x="10" y="230"></rect><g><text fill="black" font-family="Helvetica,sans-Serif" x="41.25" y="249" style="text-anchor: middle; alignment-baseline: central;">:User</text></g><path d="M41.25,58 v172" style="stroke-width: 1; fill: none; stroke: black;"></path><rect width="54" height="38" style="stroke-width: 1; fill: none; stroke: black;" x="246.75" y="20"></rect><g><text fill="black" font-family="Helvetica,sans-Serif" x="273.75" y="39" style="text-anchor: middle; alignment-baseline: central;">:K8s</text></g><rect width="54" height="38" style="stroke-width: 1; fill: none; stroke: black;" x="246.75" y="230"></rect><g><text fill="black" font-family="Helvetica,sans-Serif" x="273.75" y="249" style="text-anchor: middle; alignment-baseline: central;">:K8s</text></g><path d="M273.75,58 v172" style="stroke-width: 1; fill: none; stroke: black;"></path><rect width="54" height="38" style="stroke-width: 1; fill: none; stroke: black;" x="635.25" y="20"></rect><g><text fill="black" font-family="Helvetica,sans-Serif" x="662.25" y="39" style="text-anchor: middle; alignment-baseline: central;">:Git</text></g><rect width="54" height="38" style="stroke-width: 1; fill: none; stroke: black;" x="635.25" y="230"></rect><g><text fill="black" font-family="Helvetica,sans-Serif" x="662.25" y="249" style="text-anchor: middle; alignment-baseline: central;">:Git</text></g><path d="M662.25,58 v172" style="stroke-width: 1; fill: none; stroke: black;"></path><g><text fill="black" font-family="Helvetica,sans-Serif" x="157.5" y="83" style="text-anchor: middle; alignment-baseline: central;">helm install CHART_VALUES</text></g><path d="M41.25,96 h232.5" style="stroke-width: 1; fill: none; stroke: black;" marker-end="url(#arrow-filled)"></path><g><text fill="black" font-family="Helvetica,sans-Serif" x="426.25" y="125" style="text-anchor: middle; alignment-baseline: central;">otomi bootstrap &amp;&amp; otomi apply</text></g><path d="M273.75,111 C313.75,111 313.75,144 273.75,144" style="stroke-width: 1; fill: none; stroke: black;" marker-end="url(#arrow-filled)"></path><g><text fill="black" font-family="Helvetica,sans-Serif" x="473" y="163" style="text-anchor: middle; alignment-baseline: central;">if needed create domain suffix from LB IP</text></g><path d="M273.75,149 C313.75,149 313.75,182 273.75,182" style="stroke-width: 1; fill: none; stroke: black;" marker-end="url(#arrow-filled)"></path><g><text fill="black" font-family="Helvetica,sans-Serif" x="468" y="197" style="text-anchor: middle; alignment-baseline: central;">otomi commit</text></g><path d="M273.75,210 h388.5" style="stroke-width: 1; fill: none; stroke: black;" marker-end="url(#arrow-filled)"></path></svg>