<svg xmlns="http://www.w3.org/2000/svg" width="625.75" height="326">
<defs><marker id="arrow-filled" refX="6" refY="3" markerWidth="6" markerHeight="6" orient="auto"><path d="M0,0 6,3 0,6z" style="stroke: none; fill: black;"></path></marker><marker id="arrow-open" refX="6" refY="3" markerWidth="6" markerHeight="6" orient="auto"><path d="M0,0 6,3 0,6" style="stroke-width: 1; fill: none; stroke: black;"></path></marker></defs><rect width="62.5" height="38" style="stroke-width: 1; fill: none; stroke: black;" x="10" y="20"></rect><g><text fill="black" font-family="Helvetica,sans-Serif" x="41.25" y="39" style="text-anchor: middle; alignment-baseline: central;">:User</text></g><rect width="62.5" height="38" style="stroke-width: 1; fill: none; stroke: black;" x="10" y="268"></rect><g><text fill="black" font-family="Helvetica,sans-Serif" x="41.25" y="287" style="text-anchor: middle; alignment-baseline: central;">:User</text></g><path d="M41.25,58 v210" style="stroke-width: 1; fill: none; stroke: black;"></path><rect width="54" height="38" style="stroke-width: 1; fill: none; stroke: black;" x="153.25" y="20"></rect><g><text fill="black" font-family="Helvetica,sans-Serif" x="180.25" y="39" style="text-anchor: middle; alignment-baseline: central;">:K8s</text></g><rect width="54" height="38" style="stroke-width: 1; fill: none; stroke: black;" x="153.25" y="268"></rect><g><text fill="black" font-family="Helvetica,sans-Serif" x="180.25" y="287" style="text-anchor: middle; alignment-baseline: central;">:K8s</text></g><path d="M180.25,58 v210" style="stroke-width: 1; fill: none; stroke: black;"></path><rect width="54" height="38" style="stroke-width: 1; fill: none; stroke: black;" x="541.75" y="20"></rect><g><text fill="black" font-family="Helvetica,sans-Serif" x="568.75" y="39" style="text-anchor: middle; alignment-baseline: central;">:Git</text></g><rect width="54" height="38" style="stroke-width: 1; fill: none; stroke: black;" x="541.75" y="268"></rect><g><text fill="black" font-family="Helvetica,sans-Serif" x="568.75" y="287" style="text-anchor: middle; alignment-baseline: central;">:Git</text></g><path d="M568.75,58 v210" style="stroke-width: 1; fill: none; stroke: black;"></path><g><text fill="black" font-family="Helvetica,sans-Serif" x="110.75" y="83" style="text-anchor: middle; alignment-baseline: central;">helm uninstall</text></g><path d="M41.25,96 h139" style="stroke-width: 1; fill: none; stroke: black;" marker-end="url(#arrow-filled)"></path><g><text fill="black" font-family="Helvetica,sans-Serif" x="269" y="125" style="text-anchor: middle; alignment-baseline: central;">otomi bootstrap</text></g><path d="M180.25,111 C220.25,111 220.25,144 180.25,144" style="stroke-width: 1; fill: none; stroke: black;" marker-end="url(#arrow-filled)"></path><g><text fill="black" font-family="Helvetica,sans-Serif" x="379.5" y="163" style="text-anchor: middle; alignment-baseline: central;">if needed create domain suffix from LB IP</text></g><path d="M180.25,149 C220.25,149 220.25,182 180.25,182" style="stroke-width: 1; fill: none; stroke: black;" marker-end="url(#arrow-filled)"></path><g><text fill="black" font-family="Helvetica,sans-Serif" x="374.5" y="197" style="text-anchor: middle; alignment-baseline: central;">otomi pull</text></g><path d="M180.25,210 h388.5" style="stroke-width: 1; fill: none; stroke: black;" marker-end="url(#arrow-filled)"></path><g><text fill="black" font-family="Helvetica,sans-Serif" x="260.5" y="239" style="text-anchor: middle; alignment-baseline: central;">otomi destroy</text></g><path d="M180.25,225 C220.25,225 220.25,258 180.25,258" style="stroke-width: 1; fill: none; stroke: black;" marker-end="url(#arrow-filled)"></path></svg>