<svg xmlns="http://www.w3.org/2000/svg" role="img" viewBox="-1.21 -1.96 361.92 282.42"><defs><style>.cls-1{fill:#fff}.cls-2{fill:#326ce5}</style></defs><g id="its-pronounced"><g id="kyoob-cuttle"><path id="kkkkkkk" d="M15.423 250.567c.952-1.07 1.904-2.14 2.974-3.212q1.493-1.66 2.975-3.33c.951-1.19 1.903-2.262 2.737-3.214s1.665-1.903 2.26-2.617h11.54c-2.26 2.617-4.522 5.235-6.781 7.614q-3.213 3.57-7.138 7.495a48.054 48.054 0 014.045 4.284c1.427 1.665 2.736 3.33 4.045 4.995a50.811 50.811 0 013.568 5.236c1.07 1.784 2.024 3.33 2.737 4.76H27.202c-.715-1.19-1.547-2.38-2.38-3.69a43.317 43.317 0 00-2.856-4.163 34.21 34.21 0 00-3.211-4.045 20.442 20.442 0 00-3.213-3.213v14.99H5.787v-49.134l9.755-1.547v28.79" class="cls-1"/><path id="uuuuuuu" d="M72.291 271.387a46.294 46.294 0 01-6.424 1.31 45.986 45.986 0 01-8.21.593 19.17 19.17 0 01-7.375-1.19 10.928 10.928 0 01-6.9-8.327 27.976 27.976 0 01-.715-6.425v-19.154h9.757v17.965c0 3.093.357 5.354 1.19 6.782s2.378 2.14 4.639 2.14a15.169 15.169 0 002.26-.118c.833-.12 1.429-.12 2.142-.238v-26.53h9.755l-.119 33.192" class="cls-1"/><path id="bbbbbbb" d="M103.582 255.088c0-6.305-2.262-9.398-6.902-9.398a12.705 12.705 0 00-2.974.356 8.99 8.99 0 00-2.379.952v17.727c.475.12 1.07.12 1.784.238.714 0 1.546.12 2.38.12a7.366 7.366 0 006.068-2.738 12.2 12.2 0 002.022-7.257m9.874.238a21.543 21.543 0 01-1.19 7.496 15.313 15.313 0 01-3.45 5.71 18.297 18.297 0 01-5.591 3.688 21.773 21.773 0 01-7.615 1.19c-1.189 0-2.379-.12-3.688-.238s-2.497-.238-3.806-.358c-1.19-.118-2.38-.356-3.57-.595a15.036 15.036 0 01-2.974-.832V223.32l9.756-1.546v17.132a16.616 16.616 0 013.45-1.07 19.69 19.69 0 013.807-.357 15.074 15.074 0 016.424 1.308 12.884 12.884 0 014.76 3.57 14.348 14.348 0 012.855 5.71 33.785 33.785 0 01.832 7.257" class="cls-1"/><path id="eeeeeee0" d="M119.286 255.683a20.303 20.303 0 011.427-7.97 18.206 18.206 0 013.689-5.712 13.866 13.866 0 015.233-3.45 15.9 15.9 0 016.187-1.19 15.227 15.227 0 0111.54 4.52c2.855 2.975 4.282 7.38 4.282 13.088a10.887 10.887 0 01-.118 1.904c0 .595-.119 1.19-.119 1.784h-22.13a6.522 6.522 0 002.856 4.76 11.32 11.32 0 006.662 1.783 25.212 25.212 0 005.235-.475 21.341 21.341 0 004.283-1.19l1.308 7.97c-.476.24-1.19.477-2.14.833a11.994 11.994 0 01-2.976.596 26.855 26.855 0 01-3.45.475c-1.19.12-2.497.238-3.688.238a20.92 20.92 0 01-8.09-1.427 17.517 17.517 0 01-5.71-3.688 17.172 17.172 0 01-3.33-5.71 27.944 27.944 0 01-.954-7.14m22.962-3.806a7.692 7.692 0 00-.476-2.38 7.232 7.232 0 00-1.07-2.14 5.684 5.684 0 00-4.76-2.143 7.188 7.188 0 00-2.855.595 4.732 4.732 0 00-1.903 1.428 6.24 6.24 0 00-1.19 2.142 17.399 17.399 0 00-.595 2.38h12.85" class="cls-1"/><path id="rrrrrrr" d="M179.842 246.76a17.876 17.876 0 00-3.094-.595 19.69 19.69 0 00-3.807-.357 20.975 20.975 0 00-2.26.238 18.683 18.683 0 00-1.904.357v26.293h-9.756V239.98a50.604 50.604 0 016.186-1.666 33.468 33.468 0 017.971-.832 11.58 11.58 0 011.904.118 16.256 16.256 0 012.26.238c.715.12 1.428.238 2.261.357.713.12 1.428.358 1.903.476l-1.665 8.09" class="cls-1"/><path id="nnnnnnn" d="M186.742 239.384a57.524 57.524 0 0114.633-1.903 18.147 18.147 0 017.257 1.19 10.191 10.191 0 014.64 3.211 13.897 13.897 0 012.38 4.997 26.539 26.539 0 01.713 6.424v19.393h-9.756v-18.2c0-3.095-.356-5.355-1.19-6.664s-2.379-1.904-4.64-1.904a15.17 15.17 0 00-2.26.12 11.787 11.787 0 00-2.14.237v26.53h-9.638v-33.43" class="cls-1"/><path id="eeeeeee1" d="M223.622 255.683a20.301 20.301 0 011.427-7.97 18.206 18.206 0 013.69-5.712 13.866 13.866 0 015.234-3.45 15.9 15.9 0 016.187-1.19 15.227 15.227 0 0111.54 4.52c2.854 2.975 4.282 7.38 4.282 13.088a10.885 10.885 0 01-.119 1.904c0 .595-.12 1.19-.12 1.784h-22.127a6.522 6.522 0 002.856 4.76 11.32 11.32 0 006.66 1.783 25.213 25.213 0 005.237-.475 21.34 21.34 0 004.282-1.19l1.309 7.97c-.476.24-1.19.477-2.142.833a11.992 11.992 0 01-2.974.596 26.86 26.86 0 01-3.45.475c-1.19.12-2.499.238-3.688.238a20.92 20.92 0 01-8.09-1.427 17.516 17.516 0 01-5.71-3.688 17.172 17.172 0 01-3.332-5.71 27.938 27.938 0 01-.952-7.14m22.961-3.806a7.693 7.693 0 00-.475-2.38 7.233 7.233 0 00-1.071-2.14 5.684 5.684 0 00-4.76-2.143 7.188 7.188 0 00-2.855.595 4.732 4.732 0 00-1.903 1.428 6.24 6.24 0 00-1.19 2.142 17.388 17.388 0 00-.594 2.38h12.848" class="cls-1"/><path id="ttttttt" d="M263.239 229.628l9.756-1.546v10.112h11.66v8.09h-11.66v12.135a9.566 9.566 0 001.07 4.878c.715 1.19 2.261 1.785 4.403 1.785a29.167 29.167 0 003.212-.238 19.344 19.344 0 003.093-.833l1.427 7.614a18.947 18.947 0 01-3.926 1.19 22.872 22.872 0 01-5.354.475 18.18 18.18 0 01-6.66-1.07 11.01 11.01 0 01-4.165-2.975 11.804 11.804 0 01-2.261-4.758 30.834 30.834 0 01-.594-6.068v-28.79" class="cls-1"/><path id="eeeeeee2" d="M289.651 255.683a20.3 20.3 0 011.428-7.97 18.206 18.206 0 013.688-5.712 13.866 13.866 0 015.234-3.45 15.9 15.9 0 016.187-1.19 15.227 15.227 0 0111.54 4.52c2.856 2.975 4.283 7.38 4.283 13.088a10.884 10.884 0 01-.12 1.904c0 .595-.119 1.19-.119 1.784h-22.128a6.522 6.522 0 002.856 4.76 11.32 11.32 0 006.661 1.783 25.213 25.213 0 005.236-.475 21.34 21.34 0 004.282-1.19l1.31 7.97c-.476.24-1.19.477-2.143.833a11.992 11.992 0 01-2.974.596 26.855 26.855 0 01-3.45.475c-1.19.12-2.497.238-3.688.238a20.92 20.92 0 01-8.09-1.427 17.516 17.516 0 01-5.71-3.688 17.172 17.172 0 01-3.33-5.71 23.525 23.525 0 01-.953-7.14m22.843-3.806a7.692 7.692 0 00-.477-2.38 7.232 7.232 0 00-1.07-2.14 5.684 5.684 0 00-4.759-2.143 7.188 7.188 0 00-2.856.595 4.732 4.732 0 00-1.904 1.428 6.24 6.24 0 00-1.188 2.142 17.391 17.391 0 00-.596 2.38h12.85" class="cls-1"/><path id="sssssss" d="M339.262 265.557a9.776 9.776 0 003.807-.475 2.084 2.084 0 001.07-2.023c0-.833-.475-1.427-1.427-2.022a22.568 22.568 0 00-4.403-2.023c-1.546-.595-2.974-1.19-4.162-1.785a11.893 11.893 0 01-3.095-2.14 9.304 9.304 0 01-2.022-3.095 11.526 11.526 0 01-.714-4.282 9.052 9.052 0 013.569-7.614c2.38-1.904 5.711-2.856 9.875-2.856a33.842 33.842 0 016.068.595 21.997 21.997 0 014.52 1.19l-1.665 7.615a135.48 135.48 0 00-3.69-1.07 16.645 16.645 0 00-4.4-.478c-3.094 0-4.522.833-4.522 2.498a3.474 3.474 0 00.238 1.072 1.998 1.998 0 00.833.952c.357.238.952.594 1.547.95.714.358 1.546.596 2.617 1.072a39.243 39.243 0 015.354 2.38 8.882 8.882 0 013.213 2.498 6.214 6.214 0 011.665 2.974 12.346 12.346 0 01.476 3.807 8.868 8.868 0 01-3.808 7.734c-2.498 1.784-6.067 2.616-10.826 2.616a27.502 27.502 0 01-7.613-.832 21.717 21.717 0 01-4.164-1.31l1.665-7.97a36.36 36.36 0 005.116 1.546 21.894 21.894 0 004.877.476" class="cls-1"/></g></g><path d="M75.105 133.973h10.619v8.432h-10.62z" class="cls-1"/><path d="M199.27 127.028a3.59 3.59 0 00-.855-.065 3.685 3.685 0 00-1.425.37 3.725 3.725 0 00-1.803 4.825l-.026.037 8.528 20.603a43.53 43.53 0 0017.595-22.102l-21.976-3.714zm-34.194 2.92a3.72 3.72 0 00-3.568-2.894 3.656 3.656 0 00-.733.065l-.037-.045-21.785 3.698a43.695 43.695 0 0017.54 21.946l8.442-20.4-.066-.08a3.683 3.683 0 00.207-2.29zm18.245 8a3.718 3.718 0 00-6.557.008h-.018l-10.713 19.372a43.637 43.637 0 0023.815 1.225q2.197-.5 4.292-1.2l-10.738-19.406zm33.914-45L200.752 107.7l.009.047a3.725 3.725 0 001.46 6.395l.02.09 21.35 6.15a44.278 44.278 0 00-6.356-27.433zM186.612 94.6a3.725 3.725 0 005.913 2.84l.065.028 18.036-12.79a43.85 43.85 0 00-25.287-12.19l1.253 22.106zm-19.1 2.922a3.72 3.72 0 005.904-2.85l.092-.044 1.253-22.14a44.678 44.678 0 00-4.501.776 43.467 43.467 0 00-20.937 11.41l18.154 12.868zm-9.678 16.728a3.72 3.72 0 001.462-6.396l.018-.087-16.574-14.825a43.454 43.454 0 00-6.168 27.51l21.245-6.13zm16.098 6.512l6.114 2.94 6.096-2.933 1.514-6.582-4.219-5.276h-6.79l-4.231 5.268z" class="cls-2"/><path d="M281.12 133.73l-17.422-75.676a13.602 13.602 0 00-7.293-9.073l-70.521-33.67a13.589 13.589 0 00-11.705 0l-70.507 33.688a13.598 13.598 0 00-7.295 9.072l-17.394 75.673a13.315 13.315 0 00-.004 5.81 13.507 13.507 0 00.491 1.718 13.1 13.1 0 001.343 2.726c.239.365.491.72.765 1.064l48.804 60.678c.213.264.448.505.681.75a13.423 13.423 0 002.574 2.133 13.924 13.924 0 003.857 1.677 13.298 13.298 0 003.43.473h.759l77.504-.018a13 13 0 001.41-.083 13.47 13.47 0 001.989-.378 13.87 13.87 0 001.381-.442c.353-.135.705-.27 1.045-.433a13.941 13.941 0 001.479-.822 13.304 13.304 0 003.237-2.865l1.488-1.85 47.299-58.84a13.186 13.186 0 002.108-3.785 13.672 13.672 0 00.5-1.724 13.282 13.282 0 00-.004-5.81zm-73.147 29.431a14.518 14.518 0 00.703 1.703 3.314 3.314 0 00-.327 2.49 39.373 39.373 0 003.742 6.7 35.065 35.065 0 012.263 3.364c.17.315.392.803.553 1.136a4.24 4.24 0 11-7.63 3.607c-.161-.33-.385-.77-.522-1.082a35.273 35.273 0 01-1.225-3.868 39.306 39.306 0 00-2.896-7.097 3.335 3.335 0 00-2.154-1.307c-.135-.233-.635-1.15-.903-1.623a54.617 54.617 0 01-38.948-.1l-.955 1.73a3.429 3.429 0 00-1.819.887 29.518 29.518 0 00-3.268 7.582 34.898 34.898 0 01-1.218 3.868c-.135.31-.361.744-.522 1.073v.01l-.007.007a4.238 4.238 0 11-7.619-3.616c.159-.335.372-.82.54-1.135a35.173 35.173 0 012.262-3.373 41.228 41.228 0 003.82-6.866 4.188 4.188 0 00-.376-2.387l.768-1.84a54.922 54.922 0 01-24.338-30.387l-1.839.313a4.68 4.68 0 00-2.428-.855 39.525 39.525 0 00-7.356 2.165 35.587 35.587 0 01-3.787 1.45c-.305.084-.745.168-1.093.244-.028.01-.052.022-.08.03a.602.602 0 01-.065.005 4.236 4.236 0 11-1.874-8.224l.061-.015.037-.01c.353-.083.805-.2 1.127-.262a35.267 35.267 0 014.05-.326 39.39 39.39 0 007.564-1.242 5.835 5.835 0 001.814-1.83l1.767-.516a54.613 54.613 0 018.613-38.073l-1.353-1.206a4.688 4.688 0 00-.848-2.436 39.366 39.366 0 00-6.277-4.41 35.25 35.25 0 01-3.499-2.046c-.256-.19-.596-.478-.874-.704l-.063-.044a4.473 4.473 0 01-1.038-6.222 4.066 4.066 0 013.363-1.488 5.03 5.03 0 012.942 1.11c.287.225.68.526.935.745a35.256 35.256 0 012.78 2.95 39.383 39.383 0 005.69 5.142 3.333 3.333 0 002.507.243q.754.55 1.522 1.082a54.289 54.289 0 0127.577-15.754 55.052 55.052 0 017.63-1.173l.1-1.784a4.601 4.601 0 001.37-2.184 39.476 39.476 0 00-.47-7.654 35.466 35.466 0 01-.576-4.014c-.011-.307.006-.73.01-1.08 0-.04-.01-.08-.01-.119a4.242 4.242 0 118.441-.004c0 .37.022.86.009 1.2a35.111 35.111 0 01-.579 4.013 39.533 39.533 0 00-.478 7.656 3.344 3.344 0 001.379 2.11c.015.305.065 1.323.102 1.884a55.309 55.309 0 0135.032 16.926l1.606-1.147a4.69 4.69 0 002.56-.278 39.53 39.53 0 005.69-5.148 34.998 34.998 0 012.787-2.95c.259-.222.65-.52.936-.746a4.242 4.242 0 115.258 6.598c-.283.23-.657.548-.929.75a35.097 35.097 0 01-3.507 2.046 39.495 39.495 0 00-6.277 4.41 3.337 3.337 0 00-.792 2.39c-.235.216-1.06.947-1.497 1.343a54.837 54.837 0 018.792 37.983l1.704.496a4.745 4.745 0 001.82 1.83 39.464 39.464 0 007.568 1.246 35.64 35.64 0 014.046.324c.355.065.868.207 1.23.29a4.236 4.236 0 11-1.878 8.223l-.06-.008c-.029-.007-.055-.022-.084-.03-.348-.075-.785-.15-1.09-.23a35.14 35.14 0 01-3.785-1.463 39.476 39.476 0 00-7.363-2.165 3.337 3.337 0 00-2.362.877q-.9-.17-1.804-.316a54.92 54.92 0 01-24.328 30.605z" class="cls-2"/><path d="M290.319 135.67l-19.007-82.56a14.838 14.838 0 00-7.958-9.9L186.419 6.48a14.825 14.825 0 00-12.771 0L96.72 43.23a14.838 14.838 0 00-7.961 9.895L69.785 135.69a14.668 14.668 0 001.995 11.185c.261.4.538.788.838 1.162l53.246 66.205a14.98 14.98 0 0011.499 5.487l85.387-.02a14.986 14.986 0 0011.5-5.48l53.227-66.21a14.72 14.72 0 002.842-12.348zm-9.197 3.866a13.675 13.675 0 01-.498 1.723 13.184 13.184 0 01-2.11 3.785l-47.299 58.838-1.486 1.852a13.305 13.305 0 01-3.24 2.865 13.946 13.946 0 01-1.474.822q-.513.237-1.045.43a13.865 13.865 0 01-1.383.445 13.473 13.473 0 01-1.989.38 12.988 12.988 0 01-1.41.081l-77.504.018h-.76a13.298 13.298 0 01-3.429-.472 13.924 13.924 0 01-3.855-1.678 13.424 13.424 0 01-2.576-2.132c-.233-.246-.468-.487-.68-.75l-48.805-60.68q-.408-.513-.765-1.065a13.102 13.102 0 01-1.343-2.726 13.507 13.507 0 01-.491-1.72 13.315 13.315 0 01.004-5.808L96.378 58.07a13.598 13.598 0 017.295-9.07l70.508-33.686a13.59 13.59 0 0111.705 0l70.519 33.67a13.602 13.602 0 017.293 9.073l17.422 75.675a13.282 13.282 0 01.002 5.807z" class="cls-1"/><path d="M250.726 127.668c-.36-.083-.874-.225-1.227-.29a35.633 35.633 0 00-4.046-.326 39.464 39.464 0 01-7.57-1.242 4.745 4.745 0 01-1.82-1.832l-1.704-.496a54.837 54.837 0 00-8.79-37.983c.436-.396 1.262-1.127 1.495-1.342a3.338 3.338 0 01.792-2.39 39.495 39.495 0 016.277-4.41 35.096 35.096 0 003.507-2.046c.272-.202.644-.522.929-.75a4.242 4.242 0 10-5.256-6.6c-.288.227-.68.525-.936.747a35.007 35.007 0 00-2.789 2.95 39.533 39.533 0 01-5.69 5.148 4.69 4.69 0 01-2.56.278l-1.606 1.147A55.309 55.309 0 00184.7 61.304c-.039-.56-.087-1.577-.102-1.884a3.344 3.344 0 01-1.377-2.11 39.533 39.533 0 01.478-7.656 35.111 35.111 0 00.575-4.012c.013-.34-.007-.834-.007-1.2a4.242 4.242 0 10-8.441.003c0 .04.009.078.01.118-.004.35-.021.774-.01 1.08a35.472 35.472 0 00.576 4.015 39.476 39.476 0 01.47 7.654 4.6 4.6 0 01-1.37 2.182l-.1 1.786a55.055 55.055 0 00-7.63 1.173 54.289 54.289 0 00-27.574 15.754q-.77-.53-1.526-1.082a3.333 3.333 0 01-2.506-.243 39.383 39.383 0 01-5.69-5.14 35.257 35.257 0 00-2.777-2.95c-.257-.22-.65-.52-.938-.75a5.03 5.03 0 00-2.942-1.11 4.066 4.066 0 00-3.363 1.49 4.473 4.473 0 001.038 6.221l.065.046c.276.226.616.515.872.702a35.255 35.255 0 003.499 2.048 39.366 39.366 0 016.276 4.412 4.69 4.69 0 01.849 2.434l1.351 1.208a54.613 54.613 0 00-8.611 38.073l-1.767.514a5.835 5.835 0 01-1.814 1.827 39.39 39.39 0 01-7.565 1.247 35.266 35.266 0 00-4.049.326c-.324.06-.774.174-1.127.262l-.037.008-.06.018a4.236 4.236 0 101.875 8.224l.063-.01c.028-.006.052-.02.08-.025.348-.08.786-.163 1.092-.246a35.583 35.583 0 003.786-1.45 39.527 39.527 0 017.358-2.166 4.68 4.68 0 012.426.857l1.84-.315a54.922 54.922 0 0024.34 30.387l-.769 1.84a4.188 4.188 0 01.377 2.387 41.227 41.227 0 01-3.82 6.864 35.18 35.18 0 00-2.263 3.372c-.168.318-.381.805-.542 1.138a4.238 4.238 0 107.621 3.616l.007-.008v-.01c.16-.33.387-.763.522-1.072a34.903 34.903 0 001.218-3.868 29.517 29.517 0 013.268-7.582 3.43 3.43 0 011.819-.888l.957-1.73a54.617 54.617 0 0038.946.1c.268.477.768 1.391.9 1.622a3.335 3.335 0 012.155 1.31 39.306 39.306 0 012.898 7.096 35.273 35.273 0 001.225 3.868c.137.312.36.75.522 1.082a4.24 4.24 0 107.63-3.607c-.161-.333-.383-.82-.55-1.136a35.064 35.064 0 00-2.263-3.364 39.373 39.373 0 01-3.742-6.7 3.314 3.314 0 01.324-2.49 14.514 14.514 0 01-.703-1.703 54.92 54.92 0 0024.328-30.605c.546.087 1.497.253 1.806.316a3.337 3.337 0 012.36-.877 39.478 39.478 0 017.36 2.165 35.133 35.133 0 003.788 1.462c.305.08.74.156 1.09.233.029.008.055.02.083.028l.06.01a4.236 4.236 0 101.878-8.225zm-40.1-42.987l-18.037 12.787-.063-.03a3.723 3.723 0 01-5.913-2.838l-.02-.01-1.253-22.103a43.85 43.85 0 0125.285 12.194zm-33.978 24.228h6.788l4.22 5.276-1.513 6.58-6.096 2.934-6.114-2.94-1.516-6.583zm-6.386-35.649a44.679 44.679 0 014.503-.774l-1.255 22.137-.092.044a3.72 3.72 0 01-5.904 2.852l-.035.02-18.154-12.872a43.467 43.467 0 0120.937-11.407zm-27.52 19.68l16.574 14.824-.018.09a3.72 3.72 0 01-1.462 6.395l-.017.072-21.245 6.13a43.454 43.454 0 016.168-27.51zm22.191 39.38l-8.441 20.397a43.696 43.696 0 01-17.536-21.948l21.783-3.7.037.05a3.655 3.655 0 01.73-.066 3.72 3.72 0 013.364 5.185zm24.916 26.23a43.637 43.637 0 01-23.815-1.223l10.713-19.372h.018a3.725 3.725 0 016.557-.006h.08l10.74 19.404q-2.091.698-4.293 1.2zm13.841-5.75l-8.528-20.606.026-.037a3.725 3.725 0 011.803-4.823 3.685 3.685 0 011.425-.37 3.59 3.59 0 01.855.063l.037-.046 21.977 3.714A43.53 43.53 0 01203.69 152.8zm19.903-32.42l-21.352-6.15-.02-.09a3.725 3.725 0 01-1.46-6.396l-.008-.043 16.482-14.75a44.279 44.279 0 016.357 27.43z" class="cls-1"/></svg>