<?xml version="1.0" encoding="utf-8"?>
<!-- Generator: Adobe Illustrator 22.1.0, SVG Export Plug-In . SVG Version: 6.00 Build 0)  -->
<svg version="1.1" id="Layer_1" xmlns="http://www.w3.org/2000/svg" xmlns:xlink="http://www.w3.org/1999/xlink" x="0px" y="0px"
	 width="300px" height="300px" viewBox="0 0 300 300" style="enable-background:new 0 0 300 300;" xml:space="preserve">
<style type="text/css">
	.st0{fill:#F15A29;}
</style>
<g>
	<path class="st0" d="M150,32.9C85.3,32.9,32.9,85.3,32.9,150S85.3,267.1,150,267.1S267.1,214.7,267.1,150S214.7,32.9,150,32.9z
		 M150.1,250.9c-19.4,0-35.1-12.6-35.1-28.1h70.1C185.2,238.3,169.5,250.9,150.1,250.9z M204.5,213.9H95.5v-20h109.1V213.9z
		 M204.1,183.3H95.4c-13.1-15.3-16.1-28.4-16.1-28.4l32.6,6.4c-4.3-5.6-10.2-16.3-9.5-31.8c0,0-1.6-7,6.9-24.9
		c8.5-17.9,4.1-33,4.1-33s11.7,0.2,14.5,32.8c0,0,10-10.8,9.3-31.8c-0.7-21,12.8-28.1,12.8-28.1s-5.4,12.7,2.2,25.5
		c7.4,12.4,7.5,24.9,8.5,39.2c0.1,1.5,0.6,3.7,1.4,4.9c0.6,0.9,1.5,1.8,2.7,1.9c0,0-6.6-38.8,13.2-51.5c0,0-3.5,18.1,2.7,28.2
		s16.9,25.8,13,47.3c-2.2,12.1-6.3,17.1-10.2,22.6l38.4-7.7C217.2,171.8,204.1,183.3,204.1,183.3z"/>
</g>
</svg>
